<svg xmlns="http://www.w3.org/2000/svg" width="120.875" height="19.875" viewBox="0 0 120.875 19.875">
  <metadata><?xpacket begin="﻿" id="W5M0MpCehiHzreSzNTczkc9d"?>
<x:xmpmeta xmlns:x="adobe:ns:meta/" x:xmptk="Adobe XMP Core 5.6-c142 79.160924, 2017/07/13-01:06:39        ">
   <rdf:RDF xmlns:rdf="http://www.w3.org/1999/02/22-rdf-syntax-ns#">
      <rdf:Description rdf:about=""/>
   </rdf:RDF>
</x:xmpmeta>
                                                                                                    
                                                                                                    
                                                                                                    
                                                                                                    
                                                                                                    
                                                                                                    
                                                                                                    
                                                                                                    
                                                                                                    
                                                                                                    
                                                                                                    
                                                                                                    
                                                                                                    
                                                                                                    
                                                                                                    
                                                                                                    
                                                                                                    
                                                                                                    
                                                                                                    
                                                                                                    
                           
<?xpacket end="w"?></metadata>
<defs>
    <style>
      .cls-1 {
        fill: #fff;
        fill-rule: evenodd;
      }
    </style>
  </defs>
  <path id="Uni_Assist_gh" data-name="Uni Assist gh" class="cls-1" d="M175.241,66.015V74.2c0,2.66-1.64,4.12-3.88,4-2.08-.08-3.561-1.46-3.561-4V66.015h-2.22V74.2a5.64,5.64,0,0,0,5.781,6.061c3.38,0.12,6.1-1.94,6.1-6.061V66.015h-2.22ZM189.841,80V74.7c0-3.02-1.84-4.721-4.24-4.721a4.29,4.29,0,0,0-3.321,1.58l-0.12-1.44h-1.88V80h2.06v-5.16a2.8,2.8,0,0,1,2.761-2.96,2.551,2.551,0,0,1,2.66,2.84V80h2.08Zm4.7-9.9V80h-2.06V70.1h2.06Zm-2.3-2.86a1.28,1.28,0,0,0,2.56,0A1.28,1.28,0,0,0,192.24,67.235ZM213.1,80h2.38l-6.28-14H206.76l-6.28,14h2.38l1.32-2.94h7.581Zm-2.16-4.98H205.02l2.96-6.661ZM224.4,71.2a5.27,5.27,0,0,0-3.8-1.32c-1.84,0-4.1.82-4.1,3,0.02,2.18,2.16,2.78,4.02,2.96,1.46,0.14,2.3.48,2.28,1.36-0.02.92-1.12,1.28-2.1,1.28a4.818,4.818,0,0,1-3.46-1.46l-1.08,1.46a5.624,5.624,0,0,0,4.5,1.82c2.56,0,4.181-1.28,4.2-3.12,0.02-2.54-2.361-2.94-4.181-3.1-1.26-.12-2.12-0.44-2.14-1.26,0-.78.84-1.2,2.1-1.18a3.54,3.54,0,0,1,2.6.92Zm9.98,0a5.27,5.27,0,0,0-3.8-1.32c-1.84,0-4.1.82-4.1,3,0.02,2.18,2.16,2.78,4.02,2.96,1.46,0.14,2.3.48,2.28,1.36-0.02.92-1.12,1.28-2.1,1.28a4.818,4.818,0,0,1-3.46-1.46l-1.08,1.46a5.624,5.624,0,0,0,4.5,1.82c2.56,0,4.18-1.28,4.2-3.12,0.02-2.54-2.36-2.94-4.18-3.1-1.26-.12-2.12-0.44-2.14-1.26,0-.78.84-1.2,2.1-1.18a3.54,3.54,0,0,1,2.6.92Zm4.58-1.1V80H236.9V70.1h2.061Zm-2.3-2.86a1.281,1.281,0,0,0,2.561,0A1.281,1.281,0,0,0,236.659,67.235ZM249.22,71.2a5.27,5.27,0,0,0-3.8-1.32c-1.84,0-4.1.82-4.1,3,0.02,2.18,2.161,2.78,4.021,2.96,1.46,0.14,2.3.48,2.28,1.36-0.02.92-1.12,1.28-2.1,1.28a4.821,4.821,0,0,1-3.461-1.46l-1.08,1.46a5.626,5.626,0,0,0,4.5,1.82c2.56,0,4.18-1.28,4.2-3.12,0.02-2.54-2.36-2.94-4.18-3.1-1.26-.12-2.12-0.44-2.14-1.26,0-.78.84-1.2,2.1-1.18a3.54,3.54,0,0,1,2.6.92Zm3.619-3.68v2.64h-1.9v1.78h1.9v4.7c0,2.32,1.22,3.54,3.361,3.48a4.669,4.669,0,0,0,1.98-.44l-0.6-1.76a2.974,2.974,0,0,1-1.26.34,1.361,1.361,0,0,1-1.42-1.62v-4.7h2.9v-1.78h-2.88v-2.86Zm19.421,3a5.17,5.17,0,0,0-2.66-.68c-2.681,0-5.341,1.66-5.341,4.961,0,3.08,2.14,4.92,5.341,4.92,1.84,0,3.1.76,3.1,2.14,0,1.4-1.62,2.02-3.141,2.02-1.64-.02-3.2-0.84-3.14-2.38h-2.06c-0.08,2.74,1.98,4.38,5.2,4.38,2.641,0,5.281-1.34,5.281-4.02a3.321,3.321,0,0,0-2.6-3.22,3.9,3.9,0,0,0,2.62-3.84,4.357,4.357,0,0,0-1.2-3.06l1.18-1.38-1.5-1.16Zm-2.66,1.24a3.038,3.038,0,1,1-3.261,3.04A3,3,0,0,1,269.6,71.755Zm7.539-5.761V80h2.06v-5.14a2.777,2.777,0,0,1,2.72-2.94c1.521,0,2.481.92,2.481,2.78V80h2.06v-5.32c0-2.82-1.28-4.68-4.06-4.68a3.728,3.728,0,0,0-3.2,1.6v-5.6h-2.06Z" transform="translate(-165.594 -66)"/>
</svg>
